<?xml version="1.0" encoding="UTF-8"?>
<svg version="1.1" xmlns="http://www.w3.org/2000/svg" width="250" height="250">
<path d="M0 0 C82.5 0 165 0 250 0 C250 82.5 250 165 250 250 C167.5 250 85 250 0 250 C0 167.5 0 85 0 0 Z " fill="#F89566" transform="translate(0,0)"/>
<path d="M0 0 C0 0.99 0 1.98 0 3 C-1.52880859 4.47045898 -1.52880859 4.47045898 -3.6484375 5.99609375 C-4.40640625 6.55490234 -5.164375 7.11371094 -5.9453125 7.68945312 C-6.74710938 8.26630859 -7.54890625 8.84316406 -8.375 9.4375 C-9.95074363 10.57454228 -11.5212931 11.71882597 -13.0859375 12.87109375 C-13.7876709 13.37568115 -14.4894043 13.88026855 -15.21240234 14.40014648 C-17.13927779 16.12465001 -18.00874547 17.63207427 -19 20 C-13.03064453 18.15067027 -8.53851528 13.97221833 -3.70703125 10.16796875 C-3.01738281 9.63558594 -2.32773438 9.10320313 -1.6171875 8.5546875 C-0.99440918 8.06468262 -0.37163086 7.57467773 0.27001953 7.06982422 C2 6 2 6 5 6 C5 6.99 5 7.98 5 9 C2.8046875 11.0859375 2.8046875 11.0859375 -0.125 13.375 C-1.1253125 14.17035156 -2.125625 14.96570313 -3.15625 15.78515625 C-4.77746996 17.04783718 -6.40095309 18.30765439 -8.03125 19.55859375 C-10.31216127 21.35313423 -11.83229672 22.55678419 -12.875 25.3125 C-12.91625 25.869375 -12.9575 26.42625 -13 27 C-7.27476182 24.13738091 -3.03822555 20.45529039 1.5703125 16.0234375 C3.99466886 14.00443976 6.02429039 12.98484339 9 12 C7.45802147 20.73145341 -3.55722734 29.6475238 -10.33984375 34.765625 C-13.741991 36.34430126 -16.20539878 36.09283826 -19.9375 35.9375 C-28.31564703 36.08130865 -33.01254541 39.89399504 -38.828125 45.59765625 C-49.60996328 56.88630549 -57.53199377 69.03166269 -57.42285156 85.02099609 C-57.26953658 89.8437523 -56.87261212 93.56727401 -53.8515625 97.3984375 C-40.60846426 108.85343809 -20.36801196 110.19723313 -3.76953125 110.24023438 C-1.53346326 110.24985601 0.70165019 110.28089788 2.9375 110.3125 C18.91314693 110.43068268 36.42162499 107.92827717 50.4375 99.75 C53.11909324 96.87219262 53.48486714 96.22419178 53.75 92.5 C53.45704249 89.28279394 53.01206321 88.01830281 51.1875 85.25 C43.54946354 79.85844485 35.02247918 77.14654727 26 75 C26.33 72.69 26.66 70.38 27 68 C40.32856357 69.04537753 53.23580962 73.71211159 63 83 C66.72843735 89.12893812 65.28616396 96.44966041 64 103.1875 C60.85722071 115.6411301 54.19993325 126.11788263 45 135 C44.41476563 135.57105469 43.82953125 136.14210937 43.2265625 136.73046875 C34.81613049 144.41041723 24.58265935 150 13 150 C13 150.66 13 151.32 13 152 C21.91 151.01 21.91 151.01 31 150 C27.6090535 155.6515775 27.6090535 155.6515775 23.6875 157.25 C22.94886719 157.56453125 22.21023437 157.8790625 21.44921875 158.203125 C14.26838612 160.53947246 6.83917155 160.21873645 -0.625 160.25 C-2.43677734 160.2809375 -2.43677734 160.2809375 -4.28515625 160.3125 C-13.20356825 160.35090005 -23.43712543 160.22305577 -30.75 154.4375 C-33 152 -33 152 -33 150 C-27.39 150.66 -21.78 151.32 -16 152 C-16 151.34 -16 150.68 -16 150 C-16.58265625 149.99742187 -17.1653125 149.99484375 -17.765625 149.9921875 C-29.88267175 149.42062869 -39.16732797 142.83071098 -48 135 C-48.62519531 134.46890625 -49.25039062 133.9378125 -49.89453125 133.390625 C-60.89668358 123.35705944 -67.47664953 108.50961646 -68.44140625 93.76953125 C-69.08028346 75.93701133 -64.52485648 61.35280278 -52.625 47.75 C-47.06347893 41.85799806 -41.29657867 36.48451643 -34.5 32.0625 C-31.67687084 30.03237072 -31.67687084 30.03237072 -30.4921875 26.875 C-30.41362365 25.32467337 -30.34471715 23.77382917 -30.28515625 22.22265625 C-29.73642739 17.9455779 -27.22229582 15.66810665 -24 13 C-19.44654652 9.80277848 -14.77912703 6.845997 -10 4 C-9.37464355 3.61763184 -8.74928711 3.23526367 -8.10498047 2.84130859 C-3.35031593 0 -3.35031593 0 0 0 Z " fill="#FAE7D7" transform="translate(126,10)"/>
<path d="M0 0 C2.90590735 2.10678283 4.69433162 3.68730473 6.5 6.8125 C7.50410023 14.46876429 4.84121094 19.21706891 0.75 25.5 C-5.07719337 31.48905985 -12.23110222 34.79527854 -20.625 35.0625 C-24.23078298 34.82986884 -26.23572974 34.1516878 -29.5 32.8125 C-35.4639419 32.30066917 -39.40260468 33.71229102 -44.6875 36.125 C-51.53539848 39.10318631 -58.20333859 41.18518702 -65.5 42.8125 C-74.79037928 45.17804465 -81.58028281 49.14059637 -88.5 55.8125 C-88.83 56.4725 -89.16 57.1325 -89.5 57.8125 C-87.85 57.8125 -86.2 57.8125 -84.5 57.8125 C-84.17 57.1525 -83.84 56.4925 -83.5 55.8125 C-81.20703125 54.99609375 -81.20703125 54.99609375 -78.3125 54.25 C-77.37019531 54.00121094 -76.42789063 53.75242188 -75.45703125 53.49609375 C-70.24687345 52.29163191 -65.36025692 51.68935592 -60.0078125 51.71484375 C-58.80898437 51.71806641 -57.61015625 51.72128906 -56.375 51.72460938 C-54.51875 51.73717773 -54.51875 51.73717773 -52.625 51.75 C-51.36429688 51.75451172 -50.10359375 51.75902344 -48.8046875 51.76367188 C-45.70307614 51.7754204 -42.60156275 51.79184833 -39.5 51.8125 C-40.16 54.1225 -40.82 56.4325 -41.5 58.8125 C-42.06589844 58.48765625 -42.63179687 58.1628125 -43.21484375 57.828125 C-45.70065719 56.72331903 -47.35951047 56.54420565 -50.0625 56.5625 C-51.20912109 56.55476563 -51.20912109 56.55476563 -52.37890625 56.546875 C-54.79982762 56.6895439 -54.79982762 56.6895439 -57.5 58.8125 C-59.92919922 59.32739258 -59.92919922 59.32739258 -62.8046875 59.70703125 C-63.857771 59.855354 -64.91085449 60.00367676 -65.99584961 60.15649414 C-67.11096924 60.31110107 -68.22608887 60.46570801 -69.375 60.625 C-82.93328893 62.57267408 -82.93328893 62.57267408 -95.5 67.8125 C-96.16 68.8025 -96.82 69.7925 -97.5 70.8125 C-98.16 70.8125 -98.82 70.8125 -99.5 70.8125 C-100.19124471 61.48069641 -97.41882836 54.68672953 -91.375 47.5625 C-83.97891419 39.24539218 -74.64810938 35.87078351 -64.125 33.25 C-49.4564607 30.3594822 -49.4564607 30.3594822 -37.75 22.36328125 C-36.35286794 19.79095328 -36.35286794 19.79095328 -35.875 16.625 C-34.14360759 10.15356608 -28.61108644 4.79689608 -23.10546875 1.28515625 C-15.76778326 -2.04584476 -7.63849233 -2.59163133 0 0 Z " fill="#F9E7D5" transform="translate(172.5,24.1875)"/>
<path d="M0 0 C4.92851372 1.09175937 9.88384865 2.41948077 14.46875 4.546875 C14.96375 6.031875 14.96375 6.031875 15.46875 7.546875 C14.47875 7.546875 13.48875 7.546875 12.46875 7.546875 C12.571875 8.743125 12.675 9.939375 12.78125 11.171875 C12.76858642 14.74933609 12.41631659 15.63108624 10.40625 18.859375 C1.2920525 27.19789612 -11.41039413 26.13802943 -22.97900391 25.73046875 C-31.49254494 25.11805409 -39.08148474 21.58221417 -46.5078125 17.59765625 C-48.63848624 16.42414369 -48.63848624 16.42414369 -51.53125 15.546875 C-51.53125 17.196875 -51.53125 18.846875 -51.53125 20.546875 C-52.85125 20.546875 -54.17125 20.546875 -55.53125 20.546875 C-55.86125 19.226875 -56.19125 17.906875 -56.53125 16.546875 C-57.52125 16.876875 -58.51125 17.206875 -59.53125 17.546875 C-59.53125 19.526875 -59.53125 21.506875 -59.53125 23.546875 C-62.00625 22.556875 -62.00625 22.556875 -64.53125 21.546875 C-64.84375 18.359375 -64.84375 18.359375 -64.53125 14.546875 C-61.10341071 10.39738533 -59.06703707 8.69793602 -53.71875 8.171875 C-46.29102134 8.22002883 -39.60410765 11.76309728 -32.91796875 14.69140625 C-27.75428399 16.54221961 -22.96745722 16.15159383 -17.96875 14.046875 C-17.164375 13.551875 -16.36 13.056875 -15.53125 12.546875 C-19.16125 12.546875 -22.79125 12.546875 -26.53125 12.546875 C-25.58828649 7.83205744 -25.21272391 6.40302616 -21.55078125 3.54296875 C-18.17786991 1.8793471 -14.73145543 1.88270336 -11.01953125 1.78515625 C-6.64857177 1.36658713 -4.79623604 -0.75164893 0 0 Z " fill="#FAAB5A" transform="translate(153.53125,89.453125)"/>
<path d="M0 0 C0.99 0.66 1.98 1.32 3 2 C5.78855122 1.60428244 5.78855122 1.60428244 8 0 C10.4375 -0.1875 10.4375 -0.1875 13 0 C15.83259575 2.83259575 15.25838261 4.7269466 15.265625 8.6875 C15.26849518 9.67496216 15.26849518 9.67496216 15.27142334 10.68237305 C15.2727845 12.0743854 15.26909283 13.46641047 15.26074219 14.85839844 C15.250041 16.99182589 15.26063906 19.12441131 15.2734375 21.2578125 C15.27211589 22.60937686 15.26955347 23.9609407 15.265625 25.3125 C15.26336914 26.54613281 15.26111328 27.77976563 15.25878906 29.05078125 C15 32 15 32 13 34 C10.375 34.125 10.375 34.125 8 34 C7.34 32.68 6.68 31.36 6 30 C5.21625 30.66 4.4325 31.32 3.625 32 C-0.0004744 34.38269949 -3.24528739 34.69136128 -7.52734375 34.5234375 C-12.3896067 33.49414329 -15.50278587 30.28099065 -18.1640625 26.2265625 C-20.4600808 20.11099973 -20.00375539 12.23914665 -17.375 6.375 C-11.97895344 0.97895344 -7.62290418 -1.2487043 0 0 Z " fill="#FBF8F5" transform="translate(83,193)"/>
<path d="M0 0 C2.6875 0.4375 2.6875 0.4375 4.65234375 2.97265625 C6.9039599 6.56407705 8.4365727 10.36107914 9.9375 14.3125 C10.3396875 15.34503906 10.3396875 15.34503906 10.75 16.3984375 C11.40224728 18.07564479 12.04579436 19.75623123 12.6875 21.4375 C12.88907715 20.87240723 13.0906543 20.30731445 13.29833984 19.72509766 C14.2139059 17.1687699 15.13808685 14.61564108 16.0625 12.0625 C16.37960938 11.17304688 16.69671875 10.28359375 17.0234375 9.3671875 C17.3328125 8.51640625 17.6421875 7.665625 17.9609375 6.7890625 C18.38511963 5.61077881 18.38511963 5.61077881 18.81787109 4.40869141 C19.6875 2.4375 19.6875 2.4375 21.6875 0.4375 C24.1875 0.125 24.1875 0.125 26.6875 0.4375 C28.6875 3.4375 28.6875 3.4375 28.48535156 5.66577148 C27.49089481 9.12050449 26.2507427 12.44874151 24.921875 15.78515625 C24.64659973 16.47886826 24.37132446 17.17258026 24.08770752 17.88731384 C23.50517045 19.34816745 22.92005598 20.8079956 22.33251953 22.2668457 C21.44106804 24.49109742 20.57013137 26.72271909 19.69921875 28.95507812 C19.12885752 30.37810716 18.55728277 31.80065053 17.984375 33.22265625 C17.72895935 33.88628677 17.4735437 34.5499173 17.21038818 35.23365784 C15.1449486 40.25693236 12.52226019 43.02011991 7.6875 45.4375 C1.43956612 45.90030992 1.43956612 45.90030992 -1.75 43.9375 C-2.265625 43.4425 -2.78125 42.9475 -3.3125 42.4375 C-2.9825 40.7875 -2.6525 39.1375 -2.3125 37.4375 C-1.57 37.293125 -0.8275 37.14875 -0.0625 37 C2.20777739 36.53562508 4.44509479 36.01886431 6.6875 35.4375 C6.12737714 31.24043085 5.15517654 27.82823367 3.3671875 23.99609375 C2.91472656 23.00029297 2.46226562 22.00449219 1.99609375 20.97851562 C1.03750092 18.9033058 0.0739243 16.83039111 -0.89453125 14.75976562 C-1.34441406 13.76525391 -1.79429687 12.77074219 -2.2578125 11.74609375 C-2.67562988 10.84689209 -3.09344727 9.94769043 -3.52392578 9.02124023 C-4.43178901 6.04665307 -4.2244416 4.38181463 -3.3125 1.4375 C-2.3125 0.4375 -2.3125 0.4375 0 0 Z " fill="#FBF7F4" transform="translate(192.3125,192.5625)"/>
<path d="M0 0 C1.12276085 -0.0049926 1.12276085 -0.0049926 2.26820374 -0.01008606 C3.85449609 -0.01515818 5.44079915 -0.0174943 7.02709961 -0.01733398 C9.45899994 -0.01951898 11.89044574 -0.03766706 14.32226562 -0.05664062 C15.86067553 -0.05957474 17.39908759 -0.06155942 18.9375 -0.0625 C20.03287331 -0.07327827 20.03287331 -0.07327827 21.15037537 -0.08427429 C26.30633318 -0.06085432 26.30633318 -0.06085432 28.53515625 2.16796875 C27.97960069 6.72352431 27.97960069 6.72352431 26.53515625 8.16796875 C24.51551426 8.24040928 22.49348501 8.25174063 20.47265625 8.23046875 C19.36792969 8.22144531 18.26320313 8.21242187 17.125 8.203125 C16.27035156 8.19152344 15.41570313 8.17992187 14.53515625 8.16796875 C14.5508667 9.15192627 14.56657715 10.13588379 14.58276367 11.1496582 C14.63706603 14.80045383 14.6715071 18.45121376 14.69995117 22.10229492 C14.71503719 23.68243411 14.73550875 25.26253144 14.76147461 26.8425293 C14.79786751 29.1138746 14.81488387 31.38466634 14.828125 33.65625 C14.84360886 34.36260086 14.85909271 35.06895172 14.87504578 35.79670715 C14.87604631 38.71300506 14.87544878 40.68037721 13.17700195 43.11401367 C10.82928633 44.62109001 9.26091171 44.58731574 6.53515625 44.16796875 C4.1388617 40.57352692 4.27734294 38.01935223 4.33984375 33.875 C4.34267365 33.16897141 4.34550354 32.46294281 4.34841919 31.73551941 C4.35960161 29.48366242 4.38470205 27.23220523 4.41015625 24.98046875 C4.42018858 23.45247971 4.42931399 21.92448442 4.4375 20.39648438 C4.45953453 16.65349212 4.49405058 12.91079819 4.53515625 9.16796875 C3.39626953 9.22017578 3.39626953 9.22017578 2.234375 9.2734375 C1.24050781 9.30050781 0.24664062 9.32757813 -0.77734375 9.35546875 C-1.76347656 9.39027344 -2.74960937 9.42507812 -3.765625 9.4609375 C-6.46484375 9.16796875 -6.46484375 9.16796875 -8.3359375 7.8203125 C-9.46484375 6.16796875 -9.46484375 6.16796875 -9.21484375 3.54296875 C-7.71529574 -1.20559995 -4.35085996 0.00661193 0 0 Z " fill="#FBF7F3" transform="translate(38.46484375,182.83203125)"/>
<path d="M0 0 C2.375 1.8125 2.375 1.8125 3.3125 4.4375 C3.333125 5.22125 3.35375 6.005 3.375 6.8125 C2.375 7.8125 2.375 7.8125 -0.5625 7.9375 C-3.625 7.8125 -3.625 7.8125 -5.625 6.8125 C-7.62460012 6.772508 -9.62547242 6.76903201 -11.625 6.8125 C-11.625 7.8025 -11.625 8.7925 -11.625 9.8125 C-10.72136719 10.12703125 -9.81773438 10.4415625 -8.88671875 10.765625 C-7.70722656 11.19359375 -6.52773437 11.6215625 -5.3125 12.0625 C-3.55486328 12.68898437 -3.55486328 12.68898437 -1.76171875 13.328125 C1.44723235 14.84668218 2.71765679 15.72460791 4.375 18.8125 C5.01505872 23.85296243 5.01505872 23.85296243 4.375 26.8125 C1.84046343 30.03204645 0.26202695 31.51682435 -3.625 32.8125 C-15.95722271 33.81685993 -15.95722271 33.81685993 -20.375 31.0625 C-22.625 28.8125 -22.625 28.8125 -23.625 26.6875 C-23.625 24.8125 -23.625 24.8125 -21.625 22.8125 C-17.89203674 22.42963197 -16.84873677 22.66334215 -13.625 24.8125 C-11.56790404 25.05305468 -11.56790404 25.05305468 -9.4375 24.9375 C-8.179375 24.89625 -6.92125 24.855 -5.625 24.8125 C-5.625 23.8225 -5.625 22.8325 -5.625 21.8125 C-6.52863281 21.49796875 -7.43226562 21.1834375 -8.36328125 20.859375 C-9.54277344 20.43140625 -10.72226563 20.0034375 -11.9375 19.5625 C-13.10925781 19.14484375 -14.28101562 18.7271875 -15.48828125 18.296875 C-18.69723235 16.77831782 -19.96765679 15.90039209 -21.625 12.8125 C-22.26721857 7.75502874 -22.26721857 7.75502874 -21.625 4.8125 C-15.81870808 -2.36896632 -8.54907488 -2.80055901 0 0 Z " fill="#FBF8F5" transform="translate(126.625,194.1875)"/>
<path d="M0 0 C4.92851372 1.09175937 9.88384865 2.41948077 14.46875 4.546875 C14.96375 6.031875 14.96375 6.031875 15.46875 7.546875 C13.48875 7.216875 11.50875 6.886875 9.46875 6.546875 C10.45875 7.536875 10.45875 7.536875 11.46875 8.546875 C12.03125 11.296875 12.03125 11.296875 11.46875 14.546875 C9.46014405 17.02874152 7.30657585 19.06451475 4.46875 20.546875 C2.234375 20.20703125 2.234375 20.20703125 0.46875 19.546875 C1.22671875 19.09248047 1.22671875 19.09248047 2 18.62890625 C6.13999361 16.09748777 6.13999361 16.09748777 8.21875 11.921875 C7.65101814 9.37324786 7.65101814 9.37324786 5.34375 7.796875 C2.35038326 6.4954112 -0.31748808 6.02760393 -3.53125 5.546875 C-4.0159375 6.22234375 -4.500625 6.8978125 -5 7.59375 C-12.84098451 18.02829093 -12.84098451 18.02829093 -19.53125 19.546875 C-27.76391571 20.48696876 -34.73126795 20.56224719 -41.69921875 15.73828125 C-45.13027367 13.5069982 -48.573337 13.36964266 -52.59375 13.296875 C-53.45097656 13.27109375 -54.30820313 13.2453125 -55.19140625 13.21875 C-57.58810593 13.36142255 -57.58810593 13.36142255 -59.32421875 14.90234375 C-61.00287421 17.18944391 -60.81540899 18.77632488 -60.53125 21.546875 C-60.20125 22.206875 -59.87125 22.866875 -59.53125 23.546875 C-62.00625 22.556875 -62.00625 22.556875 -64.53125 21.546875 C-64.84375 18.359375 -64.84375 18.359375 -64.53125 14.546875 C-61.10341071 10.39738533 -59.06703707 8.69793602 -53.71875 8.171875 C-46.29102134 8.22002883 -39.60410765 11.76309728 -32.91796875 14.69140625 C-27.75428399 16.54221961 -22.96745722 16.15159383 -17.96875 14.046875 C-17.164375 13.551875 -16.36 13.056875 -15.53125 12.546875 C-19.16125 12.546875 -22.79125 12.546875 -26.53125 12.546875 C-25.58828649 7.83205744 -25.21272391 6.40302616 -21.55078125 3.54296875 C-18.17786991 1.8793471 -14.73145543 1.88270336 -11.01953125 1.78515625 C-6.64857177 1.36658713 -4.79623604 -0.75164893 0 0 Z " fill="#F9DFA6" transform="translate(153.53125,89.453125)"/>
<path d="M0 0 C2.5 0.25 2.5 0.25 4.5 2.25 C4.625 5.875 4.625 5.875 4.5 9.25 C5.61375 9.20875 6.7275 9.1675 7.875 9.125 C11.5 9.25 11.5 9.25 13.5 11.25 C12.94444444 15.80555556 12.94444444 15.80555556 11.5 17.25 C9.19 17.25 6.88 17.25 4.5 17.25 C4.83 22.53 5.16 27.81 5.5 33.25 C8.14 34.24 10.78 35.23 13.5 36.25 C13.6875 38.625 13.6875 38.625 13.5 41.25 C9.48141405 43.9290573 6.22358279 43.94610694 1.5 43.25 C-1.37029869 41.45606332 -2.99131638 40.26736724 -4.5 37.25 C-4.58372659 35.72851674 -4.60730027 34.20344222 -4.59765625 32.6796875 C-4.59443359 31.78378906 -4.59121094 30.88789063 -4.58789062 29.96484375 C-4.57951172 29.02769531 -4.57113281 28.09054688 -4.5625 27.125 C-4.55798828 26.18011719 -4.55347656 25.23523438 -4.54882812 24.26171875 C-4.53702357 21.92441613 -4.52055759 19.58723939 -4.5 17.25 C-5.82 16.92 -7.14 16.59 -8.5 16.25 C-9.125 13.875 -9.125 13.875 -9.5 11.25 C-8.84 10.59 -8.18 9.93 -7.5 9.25 C-6.51 9.25 -5.52 9.25 -4.5 9.25 C-4.54125 8.13625 -4.5825 7.0225 -4.625 5.875 C-4.48270077 1.74832222 -4.24452665 0.42445267 0 0 Z " fill="#FBF8F5" transform="translate(143.5,183.75)"/>
<path d="M0 0 C1.2065625 0.0309375 1.2065625 0.0309375 2.4375 0.0625 C3.0975 1.3825 3.7575 2.7025 4.4375 4.0625 C5.13875 3.4025 5.84 2.7425 6.5625 2.0625 C9.88127677 -0.24621428 11.48394974 -0.38676708 15.4375 0.0625 C16.4375 1.0625 16.4375 1.0625 16.625 4 C16.4375 7.0625 16.4375 7.0625 14.4375 9.0625 C13.2825 9.51625 12.1275 9.97 10.9375 10.4375 C7.52131566 11.68627125 7.52131566 11.68627125 6.25 13.65625 C4.85859667 17.77694448 5.00077495 22.08453853 4.87109375 26.39453125 C4.63867942 31.86132058 4.63867942 31.86132058 2.4375 34.0625 C-0.125 34.25 -0.125 34.25 -2.5625 34.0625 C-4.23923649 32.38576351 -3.69037817 30.33394924 -3.70144653 28.09594727 C-3.6994223 27.40428467 -3.69739807 26.71262207 -3.6953125 26 C-3.69626923 25.29351318 -3.69722595 24.58702637 -3.69821167 23.85913086 C-3.69889333 22.36279207 -3.69704005 20.86645033 -3.69287109 19.37011719 C-3.68752257 17.07219843 -3.69281651 14.77447514 -3.69921875 12.4765625 C-3.69855797 11.02604123 -3.6972768 9.57552009 -3.6953125 8.125 C-3.69733673 7.4333374 -3.69936096 6.7416748 -3.70144653 6.02905273 C-3.67207192 0.08956273 -3.67207192 0.08956273 0 0 Z " fill="#FBFAF7" transform="translate(167.5625,192.9375)"/>
<path d="M0 0 C1.44010481 0.25662245 2.8770687 0.53090821 4.3125 0.8125 C5.11300781 0.96332031 5.91351563 1.11414063 6.73828125 1.26953125 C9.2753235 2.08892141 10.36565707 2.917115 12 5 C12.5 7.4375 12.5 7.4375 12 10 C7.80950618 14.59602549 2.0643729 16.75585039 -4.07275391 17.12451172 C-9.05246623 17.25295879 -14.02194053 17.15431413 -19 17 C-19 16.34 -19 15.68 -19 15 C-18.40832031 14.76925781 -17.81664062 14.53851563 -17.20703125 14.30078125 C-9.47836214 11.11097165 -5.18829829 6.37419504 0 0 Z " fill="#F8A962" transform="translate(150,94)"/>
<path d="M0 0 C0 1.65 0 3.3 0 5 C1.32 5 2.64 5 4 5 C4 3.35 4 1.7 4 0 C9.71305792 0.68658411 13.80313865 2.81316991 18.8046875 5.52734375 C26.09438788 8.88702229 33.09068689 9.36317446 41 9.625 C41.96550781 9.66367188 42.93101562 9.70234375 43.92578125 9.7421875 C46.2836744 9.83556941 48.64157756 9.92134329 51 10 C51 10.33 51 10.66 51 11 C43.55572188 12.18576164 36.20113413 12.23881516 28.6875 12.25 C27.6207605 12.25350464 27.6207605 12.25350464 26.5324707 12.25708008 C15.45116971 12.27083635 4.81771913 11.52413446 -6 9 C-5.74236157 6.65710052 -5.40428155 4.32209216 -5 2 C-3.25550889 0.74614701 -2.17201059 0 0 0 Z " fill="#F68A51" transform="translate(98,105)"/>
<path d="M0 0 C5.71428571 0.71428571 5.71428571 0.71428571 7 2 C7.5625 4.625 7.5625 4.625 7 8 C2.10548073 13.85399078 -3.15800924 16.58204285 -10.734375 17.40625 C-19.62534737 17.7435203 -25.90682236 16.93746641 -33 11 C-33.58136719 10.52175781 -34.16273437 10.04351562 -34.76171875 9.55078125 C-36 8 -36 8 -36 4 C-31.11187968 4.41898174 -29.29592586 6.5350523 -26 10 C-22.43624624 12.37583584 -19.1477445 12.29921847 -14.9375 12.3125 C-13.70902344 12.32925781 -12.48054688 12.34601563 -11.21484375 12.36328125 C-8.07745898 12.26826431 -8.07745898 12.26826431 -6.19921875 10.73828125 C-4.89060887 8.84143631 -3.85304901 6.96201797 -2.875 4.875 C-1.08333333 1.08333333 -1.08333333 1.08333333 0 0 Z " fill="#F47C51" transform="translate(140,133)"/>
<path d="M0 0 C3.23617033 2.89189689 4.7957748 4.74912064 5.5 9.0625 C4.93980114 12.3536683 3.98373516 14.32958728 2 17 C-1.12860495 18.56430248 -3.55602925 18.35627284 -7 18 C-9.71538955 15.84161344 -10.78632989 14.23796494 -11.37890625 10.8046875 C-11.57174604 7.03498064 -11.42521047 4.69734517 -9.4375 1.4375 C-5.97050841 -0.60713607 -3.95700755 -0.69421185 0 0 Z " fill="#F68F61" transform="translate(84,201)"/>
<path d="M0 0 C-0.50330905 4.0905299 -2.45265625 5.52239861 -5.5625 8.0625 C-14.73309253 16.03920996 -21.73117127 26.22941072 -25 38 C-25.16071705 40.75125794 -25.23586033 43.38118774 -25.1875 46.125 C-25.18685547 46.82753906 -25.18621094 47.53007813 -25.18554688 48.25390625 C-25.15678179 51.63540136 -25.04671748 54.76773641 -24 58 C-27.90106795 54.74911004 -29.01084013 51.94579935 -30 47 C-30.85312138 36.42129486 -26.53901901 25.41488358 -19.75170898 17.31787109 C-17.16376808 14.6030533 -14.51326825 11.97745335 -11.8125 9.375 C-10.89791016 8.46621094 -9.98332031 7.55742188 -9.04101562 6.62109375 C-2.29546523 0 -2.29546523 0 0 0 Z " fill="#F8DABE" transform="translate(94,47)"/>
<path d="M0 0 C4.92851372 1.09175937 9.88384865 2.41948077 14.46875 4.546875 C14.96375 6.031875 14.96375 6.031875 15.46875 7.546875 C13.48875 7.216875 11.50875 6.886875 9.46875 6.546875 C10.12875 7.206875 10.78875 7.866875 11.46875 8.546875 C12.03125 11.296875 12.03125 11.296875 11.46875 14.546875 C9.46014405 17.02874152 7.30657585 19.06451475 4.46875 20.546875 C2.234375 20.20703125 2.234375 20.20703125 0.46875 19.546875 C0.9740625 19.24394531 1.479375 18.94101563 2 18.62890625 C6.13999361 16.09748777 6.13999361 16.09748777 8.21875 11.921875 C7.65101814 9.37324786 7.65101814 9.37324786 5.34375 7.796875 C2.14034598 6.40409064 -0.01510958 5.47362207 -3.53125 5.546875 C-5.64350203 7.36053643 -6.92224682 9.22801747 -8.53125 11.546875 C-10.53125 7.796875 -10.53125 7.796875 -10.53125 5.546875 C-14.98625 4.556875 -14.98625 4.556875 -19.53125 3.546875 C-19.53125 3.216875 -19.53125 2.886875 -19.53125 2.546875 C-18.39236328 2.47339844 -18.39236328 2.47339844 -17.23046875 2.3984375 C-15.73966797 2.28628906 -15.73966797 2.28628906 -14.21875 2.171875 C-13.23261719 2.10226563 -12.24648437 2.03265625 -11.23046875 1.9609375 C-6.72755735 1.27018698 -4.89780974 -0.7675672 0 0 Z " fill="#F9D386" transform="translate(153.53125,89.453125)"/>
<path d="M0 0 C4.13751982 1.59677269 8.21390158 3.31131302 12.28125 5.078125 C14.74823607 5.9737569 16.89633878 6.3446115 19.50390625 6.578125 C20.29410156 6.65289062 21.08429688 6.72765625 21.8984375 6.8046875 C22.49011719 6.85367188 23.08179688 6.90265625 23.69140625 6.953125 C23.69140625 7.283125 23.69140625 7.613125 23.69140625 7.953125 C14.95456576 9.74529741 9.21547614 9.82164081 1.69140625 4.953125 C-1.33385081 3.96771969 -4.19856678 3.7605463 -7.37109375 3.703125 C-8.22832031 3.67734375 -9.08554688 3.6515625 -9.96875 3.625 C-12.36544968 3.76767255 -12.36544968 3.76767255 -14.1015625 5.30859375 C-15.78021796 7.59569391 -15.59275274 9.18257488 -15.30859375 11.953125 C-14.97859375 12.613125 -14.64859375 13.273125 -14.30859375 13.953125 C-16.78359375 12.963125 -16.78359375 12.963125 -19.30859375 11.953125 C-19.62109375 8.765625 -19.62109375 8.765625 -19.30859375 4.953125 C-13.7848771 -1.73347936 -8.11595639 -2.56797676 0 0 Z " fill="#F8E7BB" transform="translate(108.30859375,99.046875)"/>
<path d="M0 0 C1.65 0 3.3 0 5 0 C3.68 0.33 2.36 0.66 1 1 C1 1.99 1 2.98 1 4 C1.89460937 4.15855469 2.78921875 4.31710938 3.7109375 4.48046875 C12.63111064 6.20173883 21.61178215 8.07149946 28.125 14.875 C30.37385636 18.62309394 30.64905886 20.69998507 30 25 C28.46875 26.70703125 28.46875 26.70703125 27 28 C26.92265625 27.00419922 26.92265625 27.00419922 26.84375 25.98828125 C26.21769678 20.72926518 26.21769678 20.72926518 23.47265625 16.36328125 C16.19347672 11.64446752 7.32006911 9.2186851 -1 7 C-0.67 4.69 -0.34 2.38 0 0 Z " fill="#F7CDAD" transform="translate(153,78)"/>
<path d="M0 0 C0 1.65 0 3.3 0 5 C1.32 5 2.64 5 4 5 C4 3.35 4 1.7 4 0 C5.65 0.33 7.3 0.66 9 1 C9.28875 1.9075 9.5775 2.815 9.875 3.75 C10.98747068 7.19166475 10.98747068 7.19166475 13 11 C15.97 11 18.94 11 22 11 C22 11.33 22 11.66 22 12 C12.42460227 12.4633257 3.37866335 10.71635669 -6 9 C-5.74236157 6.65710052 -5.40428155 4.32209216 -5 2 C-3.25550889 0.74614701 -2.17201059 0 0 0 Z " fill="#F78550" transform="translate(98,105)"/>
<path d="M0 0 C-0.350625 0.515625 -0.70125 1.03125 -1.0625 1.5625 C-2.41281004 5.07330611 -1.88944967 7.37866919 -1 11 C-0.319375 11.845625 0.36125 12.69125 1.0625 13.5625 C3 16 3 16 3.5 19 C2.8850867 22.68947979 1.62288407 24.37711593 -1 27 C-1.66 27 -2.32 27 -3 27 C-2.8453125 25.2675 -2.8453125 25.2675 -2.6875 23.5 C-2.64713128 18.93833494 -4.35435633 16.48363834 -6.87109375 12.8125 C-8 11 -8 11 -8.5625 8.3125 C-7.78882555 5.13183837 -6.22626641 3.35722326 -4 1 C-2 0 -2 0 0 0 Z " fill="#F9EBDD" transform="translate(182,53)"/>
<path d="M0 0 C-0.37513816 5.53328783 -0.65567344 9.12533037 -5 13 C-8.25 13.8125 -8.25 13.8125 -11 14 C-9.79618552 11.50638429 -8.54571278 9.31856917 -7 7 C-7.61875 7.495 -8.2375 7.99 -8.875 8.5 C-11 10 -11 10 -13 10 C-13 10.66 -13 11.32 -13 12 C-13.66 12 -14.32 12 -15 12 C-15.4375 9.875 -15.4375 9.875 -15 7 C-10.3946476 1.94740865 -6.84011924 -0.14869824 0 0 Z " fill="#DFB474" transform="translate(150,74)"/>
<path d="M0 0 C0.99 0.33 1.98 0.66 3 1 C0.61255632 3.44583835 -1.78637144 5.88010093 -4.1875 8.3125 C-4.86103516 9.00279297 -5.53457031 9.69308594 -6.22851562 10.40429688 C-12.18866457 16.42259361 -15.80630192 19.29294475 -24.5625 19.5625 C-30.58590781 19.67536519 -30.58590781 19.67536519 -36 22 C-34.59705669 18.60955368 -33.14696883 16.89799853 -30 15 C-27.26358167 14.8365692 -24.67898688 15.06319222 -21.94921875 15.28515625 C-15.16911129 14.62959619 -10.28348163 9.76366123 -5.5625 5.25 C-5.02173828 4.74339844 -4.48097656 4.23679687 -3.92382812 3.71484375 C-2.61020234 2.48259301 -1.3042636 1.24215581 0 0 Z " fill="#FAE1CB" transform="translate(130,27)"/>
<path d="M0 0 C5.75 1.75 5.75 1.75 8 4 C8.66 3.67 9.32 3.34 10 3 C9.79356515 6.61260995 9.09253059 7.90272425 6.5625 10.5625 C2.55753838 13.61713175 -2.12552882 15.761273 -7 17 C-9.3046875 16.6015625 -9.3046875 16.6015625 -11 16 C-10.44570312 15.67386719 -9.89140625 15.34773438 -9.3203125 15.01171875 C-8.59585938 14.57472656 -7.87140625 14.13773438 -7.125 13.6875 C-6.04605469 13.04361328 -6.04605469 13.04361328 -4.9453125 12.38671875 C-2.48556572 10.6332848 -1.1921963 8.94828929 -0.5859375 5.95703125 C-0.51632813 5.24933594 -0.44671875 4.54164062 -0.375 3.8125 C-0.25125 2.554375 -0.1275 1.29625 0 0 Z " fill="#F78A50" transform="translate(166,97)"/>
<path d="M0 0 C8.58 0 17.16 0 26 0 C25.34 1.65 24.68 3.3 24 5 C16.16296501 5.89635331 9.61399923 6.19386419 2 4 C2 3.01 2 2.02 2 1 C1.34 0.67 0.68 0.34 0 0 Z " fill="#F87D49" transform="translate(112,171)"/>
<path d="M0 0 C-0.33 2.31 -0.66 4.62 -1 7 C-1.78375 6.835 -2.5675 6.67 -3.375 6.5 C-12.4888655 5.2429151 -18.67162325 6.2405058 -27.21484375 9.90625 C-30 11 -30 11 -33 11 C-24.5357116 2.76447615 -11.62962414 -0.49487762 0 0 Z " fill="#F9D68B" transform="translate(110,88)"/>
<path d="M0 0 C0.66 0.66 1.32 1.32 2 2 C0.88625 2.474375 -0.2275 2.94875 -1.375 3.4375 C-3.26710994 4.25306463 -5.15712709 5.07856355 -7 6 C-7 7.65 -7 9.3 -7 11 C-5.68 11.66 -4.36 12.32 -3 13 C-3.33 11.35 -3.66 9.7 -4 8 C-2.68 8 -1.36 8 0 8 C-0.66 10.97 -1.32 13.94 -2 17 C-4.97 16.01 -7.94 15.02 -11 14 C-12.34323432 7.77227723 -12.34323432 7.77227723 -10.75 4.1875 C-7.50122057 0.12652571 -5.02192048 -0.42739749 0 0 Z " fill="#FAA85F" transform="translate(125,84)"/>
<path d="M0 0 C0.66 0.33 1.32 0.66 2 1 C0.56141847 4.31182578 -1.21994486 6.43293387 -3.80859375 8.93359375 C-4.55560547 9.66513672 -5.30261719 10.39667969 -6.07226562 11.15039062 C-7.64511782 12.67129064 -9.21803416 14.19212431 -10.79101562 15.71289062 C-11.53931641 16.44572266 -12.28761719 17.17855469 -13.05859375 17.93359375 C-13.74236084 18.59415771 -14.42612793 19.25472168 -15.13061523 19.93530273 C-17.12696008 22.14022481 -18.55320066 24.40815831 -20 27 C-21 24 -21 24 -20.06640625 22.0546875 C-14.28561692 13.67629673 -7.90610381 6.42370935 0 0 Z " fill="#F78D53" transform="translate(94,49)"/>
<path d="M0 0 C1.32 0 2.64 0 4 0 C3.51262244 4.1952696 1.28936359 5.87845698 -1.8125 8.5625 C-2.68519531 9.32691406 -3.55789062 10.09132813 -4.45703125 10.87890625 C-10.59668508 16 -10.59668508 16 -14 16 C-13.73965207 12.41227847 -13.18104639 11.17755914 -10.56640625 8.61328125 C-9.07947266 7.47439453 -9.07947266 7.47439453 -7.5625 6.3125 C-6.57378906 5.54550781 -5.58507812 4.77851563 -4.56640625 3.98828125 C-3.71949219 3.33214844 -2.87257813 2.67601562 -2 2 C-1.34 1.34 -0.68 0.68 0 0 Z " fill="#F4915B" transform="translate(127,21)"/>
<path d="M0 0 C-0.3125 1.9375 -0.3125 1.9375 -1 4 C-3.70716242 4.90238747 -5.23776768 5.11851302 -8.01171875 5.09765625 C-9.14770508 5.09282227 -9.14770508 5.09282227 -10.30664062 5.08789062 C-11.09232422 5.07951172 -11.87800781 5.07113281 -12.6875 5.0625 C-13.48478516 5.05798828 -14.28207031 5.05347656 -15.10351562 5.04882812 C-17.06904257 5.0370585 -19.03453085 5.01912348 -21 5 C-21 4.34 -21 3.68 -21 3 C-13.79785983 -1.23762288 -8.14984473 -1.26867295 0 0 Z " fill="#F69D5C" transform="translate(152,106)"/>
<path d="M0 0 C2.36458739 0.91532415 4.69816266 1.85502301 6.984375 2.953125 C12.56214652 5.60355544 17.90766021 7.03336571 24 8 C24 8.66 24 9.32 24 10 C16.11397658 10.4731614 10.79219135 10.17981006 4 6 C4 5.34 4 4.68 4 4 C2.68 3.34 1.36 2.68 0 2 C0 1.34 0 0.68 0 0 Z " fill="#F48F5D" transform="translate(86,152)"/>
<path d="M0 0 C0.66 0.66 1.32 1.32 2 2 C1.50479101 7.06557527 -2.40174805 9.80597157 -6 13 C-8.94968923 15.40275795 -11.95077553 17.72518174 -15 20 C-15.99 19.34 -16.98 18.68 -18 18 C-17.28714844 17.53851563 -16.57429687 17.07703125 -15.83984375 16.6015625 C-8.92597706 11.8930611 -4.30402884 7.1684849 0 0 Z " fill="#F68A55" transform="translate(179,40)"/>
<path d="M0 0 C0.87462891 0.00451172 1.74925781 0.00902344 2.65039062 0.01367188 C4.78779047 0.02535166 6.92515463 0.04328311 9.0625 0.0625 C8.7325 1.0525 8.4025 2.0425 8.0625 3.0625 C-0.5175 3.0625 -9.0975 3.0625 -17.9375 3.0625 C-17.6075 2.4025 -17.2775 1.7425 -16.9375 1.0625 C-11.31149303 -0.12546163 -5.72922974 -0.05663877 0 0 Z " fill="#FBF8F3" transform="translate(123.9375,75.9375)"/>
<path d="M0 0 C2.31 0 4.62 0 7 0 C7.66 0.99 8.32 1.98 9 3 C6.38058783 4.74627478 4.96175123 5.38722388 2 6 C2.01160156 7.27875 2.02320313 8.5575 2.03515625 9.875 C2.04454269 11.58333186 2.05364197 13.29166532 2.0625 15 C2.07087891 15.83917969 2.07925781 16.67835938 2.08789062 17.54296875 C2.10824033 22.79319339 1.76368207 27.80455662 1 33 C0.67 33 0.34 33 0 33 C0 22.11 0 11.22 0 0 Z " fill="#F28754" transform="translate(53,192)"/>
<path d="M0 0 C2.475 0.495 2.475 0.495 5 1 C4.87235598 6.22180084 4.58418152 10.87170656 0.7734375 14.84765625 C-5.33921943 18.81953686 -13.99303636 18.22973651 -21 18 C-20.67 17.34 -20.34 16.68 -20 16 C-17.48828125 15.40234375 -17.48828125 15.40234375 -14.3125 14.9375 C-13.27738281 14.78152344 -12.24226562 14.62554687 -11.17578125 14.46484375 C-9.03619557 14.15166946 -6.89552564 13.84582548 -4.75390625 13.546875 C-1.25950853 12.85295205 -0.04075355 11.90414928 2 9 C2.50299316 4.89222251 2.32749345 3.49124017 0 0 Z " fill="#F8B868" transform="translate(162,95)"/>
<path d="M0 0 C0.90105469 0.01804687 1.80210938 0.03609375 2.73046875 0.0546875 C3.41753906 0.07789062 4.10460937 0.10109375 4.8125 0.125 C5.1425 1.115 5.4725 2.105 5.8125 3.125 C4.1625 3.125 2.5125 3.125 0.8125 3.125 C0.8125 4.775 0.8125 6.425 0.8125 8.125 C-0.5075 8.125 -1.8275 8.125 -3.1875 8.125 C-3.5175 6.805 -3.8475 5.485 -4.1875 4.125 C-7.30082248 4.79368314 -7.30082248 4.79368314 -8.375 7.1875 C-8.643125 7.826875 -8.91125 8.46625 -9.1875 9.125 C-8.875 5.75 -8.875 5.75 -8.1875 2.125 C-4.87379 -0.08414 -3.8428979 -0.09981553 0 0 Z " fill="#F7AD63" transform="translate(101.1875,101.875)"/>
<path d="M0 0 C-0.125 1.75 -0.125 1.75 -1 4 C-2.32667564 4.91846775 -3.66442437 5.82409525 -5.046875 6.65625 C-8.58340599 9.08938332 -11.6062084 12.14192524 -14.73046875 15.07421875 C-17 17 -17 17 -20 18 C-19.43170174 14.66113553 -18.53260272 13.21335813 -15.9453125 11.0546875 C-15.33042969 10.53519531 -14.71554688 10.01570313 -14.08203125 9.48046875 C-13.43621094 8.95066406 -12.79039063 8.42085937 -12.125 7.875 C-11.48691406 7.33746094 -10.84882812 6.79992187 -10.19140625 6.24609375 C-2.7303616 0 -2.7303616 0 0 0 Z " fill="#F9EFE4" transform="translate(135,22)"/>
<path d="M0 0 C5.44567686 1.02862785 10.11817117 2.24614784 15 5 C14.67 6.32 14.34 7.64 14 9 C11.36 9 8.72 9 6 9 C6 7.68 6 6.36 6 5 C5.34 5 4.68 5 4 5 C4 4.34 4 3.68 4 3 C2.68 2.34 1.36 1.68 0 1 C0 0.67 0 0.34 0 0 Z " fill="#F48354" transform="translate(107,211)"/>
<path d="M0 0 C1.65 0.33 3.3 0.66 5 1 C4.61328125 1.4846875 4.2265625 1.969375 3.828125 2.46875 C-0.42722568 7.94593404 -3.79999074 13.39997222 -6 20 C-5.34 20.33 -4.68 20.66 -4 21 C-4.99 21.33 -5.98 21.66 -7 22 C-7.62260536 13.59482769 -5.28712118 6.60511414 0 0 Z " fill="#F8DAC0" transform="translate(80,73)"/>
<path d="M0 0 C-0.125 1.8125 -0.125 1.8125 -1 4 C-1.969375 4.45375 -2.93875 4.9075 -3.9375 5.375 C-7.28221042 6.74062444 -7.28221042 6.74062444 -8.375 10.1875 C-8.58125 11.115625 -8.7875 12.04375 -9 13 C-9.66 13 -10.32 13 -11 13 C-11.6147541 5.00819672 -11.6147541 5.00819672 -9.4375 1.4375 C-6.17847619 -0.4844884 -3.71510114 -0.28577701 0 0 Z " fill="#F48453" transform="translate(84,201)"/>
<path d="M0 0 C1.921875 0.19921875 1.921875 0.19921875 4 1 C5.265625 2.70703125 5.265625 2.70703125 6.25 4.8125 C6.75273438 5.84310547 6.75273438 5.84310547 7.265625 6.89453125 C8 9 8 9 8 13 C4.9925959 12.67777813 3.99223238 11.99223238 1.8125 9.8125 C-0.15933381 6.75275788 -0.75391123 4.60930197 -1 1 C-0.67 0.67 -0.34 0.34 0 0 Z " fill="#FCFCF8" transform="translate(77,123)"/>
<path d="M0 0 C0.99 0.66 1.98 1.32 3 2 C3.1875 5.125 3.1875 5.125 3 8 C2.34 8 1.68 8 1 8 C0.34 6.68 -0.32 5.36 -1 4 C-3.83151973 3.58190799 -3.83151973 3.58190799 -7 4 C-9.26877535 6.41880929 -9.26877535 6.41880929 -11 9 C-11.66 9 -12.32 9 -13 9 C-12.66916395 6.02247554 -12.12584648 4.18625279 -10.4375 1.6875 C-6.7850399 -0.84112622 -4.39995628 -0.41904345 0 0 Z " fill="#FAEFCA" transform="translate(140,93)"/>
<path d="M0 0 C-16.10679612 9 -16.10679612 9 -21 9 C-21 8.34 -21 7.68 -21 7 C-21.66 6.67 -22.32 6.34 -23 6 C-19.7 5.34 -16.4 4.68 -13 4 C-13.33 3.34 -13.66 2.68 -14 2 C-12.73160474 1.49384702 -11.46016898 0.99530901 -10.1875 0.5 C-9.12595703 0.08234375 -9.12595703 0.08234375 -8.04296875 -0.34375 C-4.9346809 -1.34220575 -3.08753413 -1.02917804 0 0 Z " fill="#F9DCC4" transform="translate(147,147)"/>
<path d="M0 0 C-0.33 2.31 -0.66 4.62 -1 7 C-3.31 6.67 -5.62 6.34 -8 6 C-8 5.34 -8 4.68 -8 4 C-9.98 5.32 -11.96 6.64 -14 8 C-11.72632717 1.63371608 -6.41192463 -0.61065949 0 0 Z " fill="#F2C584" transform="translate(150,74)"/>
<path d="M0 0 C-0.04125 0.928125 -0.0825 1.85625 -0.125 2.8125 C-0.27136339 6.15809719 -0.27136339 6.15809719 2 9 C1.8125 11.5625 1.8125 11.5625 1 14 C0.01 14.66 -0.98 15.32 -2 16 C-4.73529412 6.88235294 -4.73529412 6.88235294 -5 3 C-3.41464922 0.73521317 -2.79754986 0 0 0 Z " fill="#F7E0CA" transform="translate(169,61)"/>
<path d="M0 0 C3.125 0.375 3.125 0.375 6 1 C6.33 1.99 6.66 2.98 7 4 C6.01 4 5.02 4 4 4 C3.34 5.32 2.68 6.64 2 8 C0 8 -2 8 -4 8 C-2.25 2.25 -2.25 2.25 0 0 Z " fill="#F89757" transform="translate(140,133)"/>
<path d="M0 0 C0 0.33 0 0.66 0 1 C-0.66386719 1.09796875 -1.32773438 1.1959375 -2.01171875 1.296875 C-7.48696738 2.22407039 -10.79767626 3.17970569 -15 7 C-15.99 7 -16.98 7 -18 7 C-18 7.66 -18 8.32 -18 9 C-18.99 9 -19.98 9 -21 9 C-21 7.35 -21 5.7 -21 4 C-13.8036691 0.93540281 -7.83534611 -0.61187085 0 0 Z " fill="#F8AE65" transform="translate(103,93)"/>
<path d="M0 0 C-3.0657052 4.65987191 -5.58657319 5.85485202 -11 7 C-10.67 4.69 -10.34 2.38 -10 0 C-3.375 -1.125 -3.375 -1.125 0 0 Z " fill="#F8CBA9" transform="translate(157,161)"/>
<path d="M0 0 C3 0.125 3 0.125 4 1.125 C4 2.775 4 4.425 4 6.125 C0.37 6.125 -3.26 6.125 -7 6.125 C-3.47316539 0.14471522 -3.47316539 0.14471522 0 0 Z " fill="#F8C97B" transform="translate(136,95.875)"/>
<path d="M0 0 C-1.5 2 -1.5 2 -4 4 C-6.75871627 4.35800135 -9.20097524 4.18660165 -12 4 C-12.66 2.68 -13.32 1.36 -14 0 C-12.41773035 -0.19627391 -10.83410729 -0.38165538 -9.25 -0.5625 C-8.36828125 -0.66691406 -7.4865625 -0.77132812 -6.578125 -0.87890625 C-4.11567549 -0.99456676 -2.33461936 -0.73638695 0 0 Z " fill="#F87A4A" transform="translate(126,228)"/>
<path d="M0 0 C0 0.66 0 1.32 0 2 C-1.49609375 3.21875 -1.49609375 3.21875 -3.4375 4.5 C-6.22531847 6.2865363 -6.22531847 6.2865363 -8 9 C-8.66 9 -9.32 9 -10 9 C-10.25 6.1875 -10.25 6.1875 -10 3 C-7.05843777 -0.39411027 -4.30855278 -0.29376496 0 0 Z " fill="#F57E52" transform="translate(184,202)"/>
<path d="M0 0 C4.95 0.33 9.9 0.66 15 1 C15 1.99 15 2.98 15 4 C13.06257659 4.02703381 11.12504521 4.04641125 9.1875 4.0625 C8.10855469 4.07410156 7.02960938 4.08570313 5.91796875 4.09765625 C3 4 3 4 0 3 C0 2.01 0 1.02 0 0 Z " fill="#F76B44" transform="translate(118,146)"/>
<path d="M0 0 C-0.33 1.32 -0.66 2.64 -1 4 C-5.29 4 -9.58 4 -14 4 C-14 3.34 -14 2.68 -14 2 C-9.126739 0.4087311 -5.19209404 -0.21192221 0 0 Z " fill="#F8DF98" transform="translate(110,88)"/>
<path d="M0 0 C7.92 0 15.84 0 24 0 C23.34 1.32 22.68 2.64 22 4 C21.01 3.34 20.02 2.68 19 2 C13.656842 1.38905752 8.27151803 2.10272033 3 3 C3 2.34 3 1.68 3 1 C2.01 0.67 1.02 0.34 0 0 Z " fill="#F9E6D3" transform="translate(108,79)"/>
<path d="M0 0 C5.53846154 -0.36923077 5.53846154 -0.36923077 7.875 1.5 C8.24625 1.995 8.6175 2.49 9 3 C8.34 3 7.68 3 7 3 C6.67 3.99 6.34 4.98 6 6 C3.69 5.34 1.38 4.68 -1 4 C-0.67 2.68 -0.34 1.36 0 0 Z " fill="#F37F4F" transform="translate(115,200)"/>
<path d="M0 0 C0.33 0.99 0.66 1.98 1 3 C0.03900391 3.74443359 0.03900391 3.74443359 -0.94140625 4.50390625 C-6.30574306 8.7170292 -11.31717339 13.03806452 -16 18 C-16 15 -16 15 -14.74658203 13.39013672 C-14.17278809 12.82568848 -13.59899414 12.26124023 -13.0078125 11.6796875 C-12.38519531 11.06222656 -11.76257813 10.44476563 -11.12109375 9.80859375 C-10.46238281 9.17050781 -9.80367188 8.53242187 -9.125 7.875 C-8.47402344 7.22917969 -7.82304688 6.58335938 -7.15234375 5.91796875 C-2.30896855 1.15448428 -2.30896855 1.15448428 0 0 Z " fill="#F58E56" transform="translate(135,26)"/>
<path d="M0 0 C-4.75 4.875 -4.75 4.875 -7 6 C-9.625 4.6875 -9.625 4.6875 -12 3 C-12 2.34 -12 1.68 -12 1 C-3.96428571 -1.27678571 -3.96428571 -1.27678571 0 0 Z " fill="#F77F4F" transform="translate(87,227)"/>
<path d="M0 0 C3.96 0.33 7.92 0.66 12 1 C11.67 1.99 11.34 2.98 11 4 C4.64102564 5.34516765 4.64102564 5.34516765 1.5625 3.6875 C0 2 0 2 0 0 Z " fill="#F9854A" transform="translate(101,46)"/>
<path d="M0 0 C3.96 0.33 7.92 0.66 12 1 C12 1.66 12 2.32 12 3 C8.86501708 4.85776765 6.62528568 5.20140476 3 5 C3 4.34 3 3.68 3 3 C2.01 3 1.02 3 0 3 C0 2.01 0 1.02 0 0 Z " fill="#F8834B" transform="translate(31,191)"/>
<path d="M0 0 C0.66 0.33 1.32 0.66 2 1 C0.95837282 3.98683456 0.29792173 4.8550651 -2.6015625 6.265625 C-3.59929687 6.59046875 -4.59703125 6.9153125 -5.625 7.25 C-6.62789062 7.58515625 -7.63078125 7.9203125 -8.6640625 8.265625 C-9.82035156 8.62914062 -9.82035156 8.62914062 -11 9 C-9.73948004 5.21844011 -8.43553394 4.74381633 -5.0625 2.75 C-4.16660156 2.20859375 -3.27070313 1.6671875 -2.34765625 1.109375 C-1.57292969 0.74328125 -0.79820312 0.3771875 0 0 Z " fill="#FACEAC" transform="translate(158,150)"/>
<path d="M0 0 C-3.38370684 3.38370684 -7.2332093 3.05529986 -11.8125 3.0625 C-13.20839779 3.04655989 -14.60427948 3.02736707 -16 3 C-15 1 -15 1 -13.14453125 0.33203125 C-8.43186288 -0.71785969 -4.78274903 -1.22634591 0 0 Z " fill="#F9C278" transform="translate(157,110)"/>
<path d="M0 0 C0.66 0 1.32 0 2 0 C2.1875 2.875 2.1875 2.875 2 6 C-1.22791555 8.1519437 -2.28400809 8.20086443 -6 8 C-5.04956626 6.66102417 -4.08940853 5.32894573 -3.125 4 C-2.59132812 3.2575 -2.05765625 2.515 -1.5078125 1.75 C-1.01023438 1.1725 -0.51265625 0.595 0 0 Z " fill="#C7AF6F" transform="translate(152,98)"/>
<path d="M0 0 C0.66 0.66 1.32 1.32 2 2 C1.31292969 2.18175781 0.62585938 2.36351563 -0.08203125 2.55078125 C-1.43361328 2.92783203 -1.43361328 2.92783203 -2.8125 3.3125 C-4.15248047 3.67794922 -4.15248047 3.67794922 -5.51953125 4.05078125 C-8.05247738 5.0200819 -9.2716496 5.95009604 -11 8 C-10.67842796 5.02545866 -10.37860258 3.40664722 -8.3125 1.1875 C-5.34331109 -0.33721863 -3.29521559 -0.35817561 0 0 Z " fill="#F7D291" transform="translate(125,84)"/>
<path d="M0 0 C5.28 0.66 10.56 1.32 16 2 C16 2.33 16 2.66 16 3 C12.7 3 9.4 3 6 3 C6.33 3.99 6.66 4.98 7 6 C5.35 6 3.7 6 2 6 C2 4.68 2 3.36 2 2 C1.34 2 0.68 2 0 2 C0 1.34 0 0.68 0 0 Z " fill="#F2885C" transform="translate(106,225)"/>
<path d="M0 0 C1.98 0 3.96 0 6 0 C5.0409375 1.2065625 5.0409375 1.2065625 4.0625 2.4375 C1.40147674 6.35851307 1.20593653 10.36642801 1 15 C0.67 15 0.34 15 0 15 C0 10.05 0 5.1 0 0 Z " fill="#F47C4E" transform="translate(149,202)"/>
<path d="M0 0 C1.33998047 0.06960937 1.33998047 0.06960937 2.70703125 0.140625 C3.60808594 0.17671875 4.50914063 0.2128125 5.4375 0.25 C6.46810547 0.31960937 6.46810547 0.31960937 7.51953125 0.390625 C7.51953125 1.050625 7.51953125 1.710625 7.51953125 2.390625 C3.22953125 3.050625 -1.06046875 3.710625 -5.48046875 4.390625 C-2.48046875 0.390625 -2.48046875 0.390625 0 0 Z " fill="#FAF6ED" transform="translate(97.48046875,77.609375)"/>
<path d="M0 0 C6.75 -0.125 6.75 -0.125 9 1 C8.67 1.99 8.34 2.98 8 4 C2.25 4.125 2.25 4.125 0 3 C0 2.01 0 1.02 0 0 Z " fill="#FBF5EF" transform="translate(154,79)"/>
<path d="M0 0 C2.125 0.375 2.125 0.375 4 1 C3.375 2.9375 3.375 2.9375 2 5 C-1.125 5.75 -1.125 5.75 -4 6 C-2.84826645 3.53199953 -1.95216435 1.95216435 0 0 Z " fill="#C9B174" transform="translate(143,82)"/>
<path d="M0 0 C0.99 0.33 1.98 0.66 3 1 C2.01 1.495 2.01 1.495 1 2 C0.26924352 4.3140622 -0.40138258 6.64828869 -1 9 C-1.99 8.67 -2.98 8.34 -4 8 C-4.25 5.6875 -4.25 5.6875 -4 3 C-2.1875 1.125 -2.1875 1.125 0 0 Z " fill="#F8B76C" transform="translate(117,88)"/>
<path d="M0 0 C0 0.99 0 1.98 0 3 C-5.34883721 8 -5.34883721 8 -8 8 C-7.690625 7.401875 -7.38125 6.80375 -7.0625 6.1875 C-5.89790296 3.91043228 -5.89790296 3.91043228 -5 1 C-3 0 -3 0 0 0 Z " fill="#F9F1E6" transform="translate(131,16)"/>
<path d="M0 0 C1.32 0.33 2.64 0.66 4 1 C3.979375 1.94875 3.95875 2.8975 3.9375 3.875 C3.77448174 6.90666283 3.77448174 6.90666283 5 9 C2.525 8.01 2.525 8.01 0 7 C0 4.69 0 2.38 0 0 Z " fill="#F9D799" transform="translate(89,104)"/>
<path d="M0 0 C-0.75 2.4375 -0.75 2.4375 -2 5 C-4.125 5.8125 -4.125 5.8125 -6 6 C-5.67 5.01 -5.34 4.02 -5 3 C-5.66 2.34 -6.32 1.68 -7 1 C-3.375 -1.125 -3.375 -1.125 0 0 Z " fill="#F78B52" transform="translate(125,63)"/>
<path d="M0 0 C1.2065625 0.0309375 1.2065625 0.0309375 2.4375 0.0625 C1.4475 0.5575 1.4475 0.5575 0.4375 1.0625 C0.4375 2.7125 0.4375 4.3625 0.4375 6.0625 C-0.8825 6.0625 -2.2025 6.0625 -3.5625 6.0625 C-3.605221 4.39638095 -3.60313832 2.72867115 -3.5625 1.0625 C-2.5625 0.0625 -2.5625 0.0625 0 0 Z " fill="#F8B573" transform="translate(101.5625,103.9375)"/>
<path d="M0 0 C2.75 0.25 2.75 0.25 5 1 C4.67 1.99 4.34 2.98 4 4 C1.36 4 -1.28 4 -4 4 C-2.3125 1.9375 -2.3125 1.9375 0 0 Z " fill="#F9E19D" transform="translate(148,89)"/>
<path d="M0 0 C0 3 0 3 -2.1875 5.5625 C-4.81277706 7.83774012 -6.72443519 8.97053677 -10 10 C-8.65790834 5.97372501 -6.51298199 5.24830847 -3 3 C-1.20605554 1.37648891 -1.20605554 1.37648891 0 0 Z " fill="#F7D9BF" transform="translate(171,42)"/>
<path d="M0 0 C-1.8125 2.5 -1.8125 2.5 -4 5 C-4.99 5 -5.98 5 -7 5 C-6.67 3.35 -6.34 1.7 -6 0 C-3 -1 -3 -1 0 0 Z " fill="#F9D3B5" transform="translate(157,161)"/>
<path d="M0 0 C0 0.33 0 0.66 0 1 C-1.01320313 1.19916016 -1.01320313 1.19916016 -2.046875 1.40234375 C-3.38492188 1.66724609 -3.38492188 1.66724609 -4.75 1.9375 C-5.63171875 2.11152344 -6.5134375 2.28554687 -7.421875 2.46484375 C-9.9581007 2.9468129 -9.9581007 2.9468129 -12.203125 3.69140625 C-12.79609375 3.79324219 -13.3890625 3.89507812 -14 4 C-14.66 3.34 -15.32 2.68 -16 2 C-10.60539047 -0.27141454 -5.73842251 -0.20413361 0 0 Z " fill="#F8BB6B" transform="translate(103,93)"/>
<path d="M0 0 C-2 3 -2 3 -4.125 3.6875 C-5.053125 3.8421875 -5.053125 3.8421875 -6 4 C-6 3.34 -6 2.68 -6 2 C-7.98 2 -9.96 2 -12 2 C-12 1.67 -12 1.34 -12 1 C-7.9472484 0.01751476 -4.16138263 -0.08159574 0 0 Z " fill="#F6A862" transform="translate(139,101)"/>
<path d="M0 0 C-1.20381448 2.49361571 -2.45428722 4.68143083 -4 7 C-2.68 7.33 -1.36 7.66 0 8 C-1.65 8 -3.3 8 -5 8 C-5.33 6.35 -5.66 4.7 -6 3 C-2.25 0 -2.25 0 0 0 Z " fill="#E7884F" transform="translate(143,81)"/>
<path d="M0 0 C0.33 1.32 0.66 2.64 1 4 C-4.41538462 8.06153846 -4.41538462 8.06153846 -7.375 7.75 C-7.91125 7.5025 -8.4475 7.255 -9 7 C-8.071875 6.5875 -7.14375 6.175 -6.1875 5.75 C-3.11945319 4.06558214 -1.80959535 2.91545917 0 0 Z " fill="#F59356" transform="translate(160,101)"/>
<path d="M0 0 C0.66 0.33 1.32 0.66 2 1 C2 1.66 2 2.32 2 3 C0.71349294 3.69710731 -0.57940665 4.38242876 -1.875 5.0625 C-2.95394531 5.63677734 -2.95394531 5.63677734 -4.0546875 6.22265625 C-4.69664063 6.47917969 -5.33859375 6.73570313 -6 7 C-6.66 6.67 -7.32 6.34 -8 6 C-2.25 1.125 -2.25 1.125 0 0 Z " fill="#F9C67A" transform="translate(85,93)"/>
<path d="M0 0 C-1.11179163 3.33537489 -2.47411298 4.63707344 -5 7 C-6.32 6.34 -7.64 5.68 -9 5 C-8.01 4.34 -7.02 3.68 -6 3 C-5.319375 2.46375 -4.63875 1.9275 -3.9375 1.375 C-2 0 -2 0 0 0 Z " fill="#F3865C" transform="translate(132,222)"/>
<path d="M0 0 C0.93065133 2.60582371 1.14917407 3.64198224 0.0625 6.25 C-0.4634375 7.11625 -0.4634375 7.11625 -1 8 C-1.66 8 -2.32 8 -3 8 C-2.74438677 5.6568787 -2.40729228 3.32156597 -2 1 C-1.34 0.67 -0.68 0.34 0 0 Z " fill="#F37D53" transform="translate(216,212)"/>
<path d="M0 0 C0.66 0.33 1.32 0.66 2 1 C1.195625 1.680625 0.39125 2.36125 -0.4375 3.0625 C-3.42288711 6.48477302 -3.73781251 8.5428126 -4 13 C-4.33 13 -4.66 13 -5 13 C-5.61538462 5.73846154 -5.61538462 5.73846154 -2.5 2 C-1.675 1.34 -0.85 0.68 0 0 Z " fill="#F8EBE1" transform="translate(110,194)"/>
<path d="M0 0 C1.98 0.66 3.96 1.32 6 2 C6 2.99 6 3.98 6 5 C4.35 4.67 2.7 4.34 1 4 C0.67 2.68 0.34 1.36 0 0 Z " fill="#B2965D" transform="translate(108,109)"/>
<path d="M0 0 C2.31 0 4.62 0 7 0 C6.67 0.99 6.34 1.98 6 3 C3.69 3 1.38 3 -1 3 C-0.67 2.01 -0.34 1.02 0 0 Z " fill="#F8E1A7" transform="translate(103,88)"/>
<path d="M0 0 C0.78375 0.04125 1.5675 0.0825 2.375 0.125 C3.035 1.445 3.695 2.765 4.375 4.125 C0.99476483 4.125 -1.45968937 3.25044378 -4.625 2.125 C-2.625 0.125 -2.625 0.125 0 0 Z " fill="#FAB96B" transform="translate(125.625,85.875)"/>
<path d="M0 0 C0.99 0.33 1.98 0.66 3 1 C2.34 2.98 1.68 4.96 1 7 C0.01 6.67 -0.98 6.34 -2 6 C-2 4.35 -2 2.7 -2 1 C-1.34 0.67 -0.68 0.34 0 0 Z " fill="#F9E4AC" transform="translate(136,63)"/>
<path d="M0 0 C0.75 1.75 0.75 1.75 1 4 C-0.9375 6.25 -0.9375 6.25 -3 8 C-3.33 7.01 -3.66 6.02 -4 5 C-2.0625 2.3125 -2.0625 2.3125 0 0 Z " fill="#F4764C" transform="translate(209,229)"/>
<path d="M0 0 C3.63 0 7.26 0 11 0 C11 0.99 11 1.98 11 3 C7.37 2.34 3.74 1.68 0 1 C0 0.67 0 0.34 0 0 Z " fill="#F8CF7B" transform="translate(98,92)"/>
<path d="M0 0 C0.66 0.33 1.32 0.66 2 1 C0.0625 3.0625 0.0625 3.0625 -3 5 C-6.08062179 5.05666696 -8.98465651 4.60438257 -12 4 C-12 3.67 -12 3.34 -12 3 C-11.38511719 2.95101562 -10.77023438 2.90203125 -10.13671875 2.8515625 C-9.32847656 2.77679688 -8.52023438 2.70203125 -7.6875 2.625 C-6.88699219 2.55539063 -6.08648437 2.48578125 -5.26171875 2.4140625 C-2.72775559 2.10435574 -2.72775559 2.10435574 0 0 Z " fill="#F49E6C" transform="translate(116,43)"/>
<path d="M0 0 C-0.33 0.99 -0.66 1.98 -1 3 C-3.31 3 -5.62 3 -8 3 C-6 0 -6 0 -4 -0.75 C-2 -1 -2 -1 0 0 Z " fill="#F89156" transform="translate(152,107)"/>
<path d="M0 0 C0.99 0.33 1.98 0.66 3 1 C1.35 2.98 -0.3 4.96 -2 7 C-2.6875 5.1875 -2.6875 5.1875 -3 3 C-1.5625 1.25 -1.5625 1.25 0 0 Z " fill="#FAC475" transform="translate(147,94)"/>
<path d="M0 0 C1.32 0.66 2.64 1.32 4 2 C3.1875 3.9375 3.1875 3.9375 2 6 C1.01 6.33 0.02 6.66 -1 7 C-0.67 4.69 -0.34 2.38 0 0 Z " fill="#F9DCC3" transform="translate(180,73)"/>
<path d="M0 0 C0 0.99 0 1.98 0 3 C-2.4375 2.625 -2.4375 2.625 -5 2 C-5.33 1.34 -5.66 0.68 -6 0 C-3 -1 -3 -1 0 0 Z " fill="#F48B5B" transform="translate(154,158)"/>
<path d="M0 0 C3.3 0 6.6 0 10 0 C10 0.99 10 1.98 10 3 C6.7 2.34 3.4 1.68 0 1 C0 0.67 0 0.34 0 0 Z " fill="#F3C98C" transform="translate(134,92)"/>
<path d="M0 0 C2.31 0 4.62 0 7 0 C5.75 1.5 5.75 1.5 4 3 C2.68 3 1.36 3 0 3 C0 2.01 0 1.02 0 0 Z " fill="#F57B43" transform="translate(53,192)"/>
<path d="M0 0 C2.03144641 0.93446535 4.03533587 1.93224776 6 3 C5.67 3.66 5.34 4.32 5 5 C2.97954558 4.39816251 0.97888961 3.72693904 -1 3 C-1.33 2.34 -1.66 1.68 -2 1 C-1.34 0.67 -0.68 0.34 0 0 Z " fill="#F9D5B7" transform="translate(92,152)"/>
<path d="M0 0 C0.99 0.33 1.98 0.66 3 1 C1.35 2.32 -0.3 3.64 -2 5 C-2.66 4.34 -3.32 3.68 -4 3 C-2.1875 1.4375 -2.1875 1.4375 0 0 Z " fill="#F78048" transform="translate(165,55)"/>
</svg>
